<svg width="951" height="111" viewBox="0 0 951 111" fill="none" xmlns="http://www.w3.org/2000/svg">
<rect y="0.000230789" width="950.845" height="110.799" rx="24" fill="#D9D9D9"/>
<path d="M926.846 0C940.1 0.000146081 950.846 10.7454 950.846 24V86.7998C950.846 100.054 940.1 110.8 926.846 110.8H450.702L514.673 0H926.846Z" fill="#5943FF"/>
<path d="M741.244 77.0827C741.09 77.1768 738.653 77.2708 735.825 77.2908C730.149 77.3307 729.619 77.1996 729.619 75.7543C729.619 74.6768 730.357 74.2891 731.991 74.5143C733.057 74.6597 733.313 74.6027 733.544 74.1551C733.903 73.4653 734.274 53.3714 733.949 52.2426C733.721 51.4444 733.613 51.3874 732.304 51.3788C730.041 51.3674 729.573 51.0966 729.673 49.868L729.762 48.8218H737.173L737.316 49.7739L737.458 50.726L738.171 49.9592C739.944 48.055 743.641 47.3025 746.771 48.2118C750.922 49.4176 753.327 54.0042 752.908 59.9192C752.509 65.5777 749.921 69.1466 745.408 70.2612C743.025 70.8484 740.651 70.4636 738.804 69.1894C738.134 68.7276 737.524 68.3485 737.45 68.3485C737.179 68.3485 737.324 73.5337 737.612 74.0696C737.852 74.52 738.216 74.6198 739.616 74.6198C741.118 74.6198 741.352 74.6968 741.557 75.2498C741.817 75.9539 741.668 76.8176 741.244 77.0827ZM652.755 69.8849C647.359 71.7236 642.063 69.4288 640.05 64.3804C639.511 63.0235 639.417 62.2453 639.417 59.084C639.417 55.9084 639.509 55.1473 640.059 53.7676C641.501 50.1445 644.446 48.0949 648.514 47.8811C654.001 47.5932 657.564 50.2557 658.767 55.5379C660.195 61.8206 657.493 68.2715 652.755 69.8849ZM715.377 70.0788C712.085 71.1021 708.533 70.3382 706.475 68.1603C705.429 67.0543 705.104 66.0566 705.11 63.9813C705.118 60.5977 707.156 58.5852 711.13 58.0378C717.293 57.1941 718.547 56.6924 718.938 54.9164C719.174 53.8389 718.661 52.348 717.763 51.5043C716.709 50.5151 713.396 50.3583 711.706 51.2221C710.46 51.8577 710.238 52.3651 710.948 52.9552C711.498 53.4113 711.495 54.6513 710.948 55.4352C710.067 56.6895 707.595 56.4101 706.823 54.9677C706.073 53.5681 706.635 51.4815 708.143 50.0476C709.77 48.5026 711.495 47.9667 714.796 47.9752C718.772 47.9838 720.155 48.6565 721.526 51.2449C721.988 52.1143 722.076 53.1776 722.219 59.4774C722.378 66.5811 722.393 66.7236 723.034 67.2424C724.371 68.3257 725.343 66.7977 725.343 63.6079C725.343 61.8919 725.38 61.7949 726.099 61.6125C727.749 61.1992 728.234 62.3822 727.911 66.048C727.686 68.5851 727.293 69.2863 725.708 69.9562C723.721 70.7971 720.799 70.0788 719.762 68.4967L719.303 67.7954L718.225 68.662C717.632 69.1352 716.352 69.7738 715.377 70.0788ZM667.023 69.7823C666.758 69.808 666.521 69.8336 666.304 69.8564C664.691 70.0303 664.335 70.0674 664.044 69.9477C663.924 69.8992 663.813 69.8222 663.628 69.7196C662.809 69.255 662.673 68.9471 662.898 68.1005C663.08 67.4078 663.228 67.3451 664.833 67.2652C666.002 67.2111 666.698 67.0315 666.954 66.7236C667.248 66.3701 667.333 64.7282 667.333 59.5401C667.333 55.84 667.234 52.4535 667.111 52.0145C666.903 51.2734 666.795 51.2221 665.543 51.2762C663.374 51.3703 662.866 51.0966 662.969 49.8851C663.08 48.5938 663.499 48.4769 667.333 48.6736L670.184 48.8218L670.275 49.754L670.364 50.6861L671.544 49.677C674.414 47.2198 679.631 47.2141 682.493 49.6628C684.488 51.3731 684.674 52.1656 684.85 59.7967C684.936 63.4825 685.11 66.6552 685.238 66.8519C685.378 67.0685 686.113 67.2082 687.131 67.2082C688.85 67.2082 689.14 67.4135 689.14 68.6221C689.14 69.7139 688.479 69.8507 683.16 69.8564C677.484 69.8621 677.077 69.751 677.225 68.2316C677.31 67.3622 677.333 67.3508 679.069 67.2652C680.751 67.1854 680.84 67.1427 681.136 66.2989C681.316 65.7772 681.444 63.0749 681.444 59.7425C681.444 54.6228 681.387 53.9643 680.871 52.9467C679.44 50.1445 674.383 49.8167 672.222 52.3879C671.002 53.8361 670.777 55.1929 670.765 61.1735C670.754 66.1678 670.803 66.7179 671.27 67.06C671.652 67.3394 672.043 67.3679 672.775 67.1655C674.483 66.6923 675.489 67.4762 675.03 68.9186C674.725 69.8821 673.978 70.0731 671.681 69.7823C670.361 69.6141 668.608 69.6141 667.023 69.7823ZM619.606 70.6175C618.865 71.0138 618.374 70.991 617.739 70.5263C617.194 70.1272 617.1 68.8872 617.448 66.6381C617.531 66.0879 617.493 64.7681 617.359 63.702C617.069 61.3502 617.322 60.8514 618.742 60.9854C619.725 61.0794 619.728 61.088 620.045 63.015C620.259 64.3063 620.575 65.1757 621 65.629C622.713 67.4505 626.94 68.1432 629.201 66.9716C631.199 65.9369 631.869 63.7675 630.666 62.2368C629.894 61.2533 629.335 61.0509 625.931 60.515C619.463 59.4973 617.531 57.7955 617.944 53.4883C618.138 51.4758 619.306 49.9108 621.43 48.8247C622.949 48.0465 623.363 47.9667 625.837 47.9667C627.878 47.9667 628.81 48.0921 629.537 48.4655C630.073 48.742 630.521 48.933 630.535 48.8931C630.928 47.7529 632.405 47.1314 633.089 47.8156C633.294 48.0208 633.423 49.5402 633.44 51.9661C633.465 55.401 633.414 55.8457 632.921 56.2904C632.425 56.738 632.302 56.7437 631.61 56.356C630.977 56.0025 630.82 55.6775 630.697 54.4546C630.583 53.3372 630.344 52.7671 629.714 52.1086C627.163 49.4461 621.453 50.8201 621.453 54.0955C621.453 56.1051 622.798 56.9603 626.804 57.4934C631.04 58.0578 633.158 59.084 634.104 61.0367C635.387 63.6877 634.429 67.2367 631.977 68.9243C629.358 70.7287 625.293 71.0109 622.188 69.6113C620.287 68.7504 620.156 68.7533 620.156 69.6198C620.156 70.0246 619.919 70.4494 619.606 70.6175ZM648.092 67.499C651.091 68.072 654.118 66.0737 655.059 62.8981C655.64 60.9398 655.634 56.9204 655.047 54.9392C653.479 49.6628 646.379 49.1383 643.813 54.1097C642.639 56.3902 642.468 60.572 643.437 63.34C644.232 65.6204 645.86 67.0742 648.092 67.499ZM741.911 67.4762C744.106 67.9608 746.597 66.9631 747.923 65.0703C749.969 62.1484 749.944 55.592 747.877 52.6873C747.142 51.6582 745.155 50.6747 743.815 50.6776C741.093 50.6804 738.749 52.3309 738.031 54.7482C737.39 56.9061 737.435 63.3143 738.1 64.6341C738.681 65.7915 740.537 67.174 741.911 67.4762ZM606.137 77.5844C604.968 78.1688 604.252 78.3199 602.781 78.3028C600.632 78.2771 599.592 77.9721 598.246 76.9687C595.8 75.1415 596.154 71.4841 598.776 71.4841C600.453 71.4841 601.271 72.8724 600.473 74.3632C600.21 74.8478 600.307 74.979 601.199 75.3524C603.369 76.256 605.586 75.0445 606.325 72.5503C606.673 71.3815 606.758 69.2892 606.758 61.9004C606.758 56.299 606.644 52.4051 606.464 51.9376C606.185 51.1992 606.105 51.1736 604.634 51.3247C602.69 51.5271 602.117 51.1622 602.246 49.8082L602.34 48.8218L606.259 48.742C609.851 48.6708 610.179 48.705 610.196 49.1696C610.284 51.9233 610.136 68.9556 610.011 70.4864C609.697 74.3034 608.568 76.3729 606.137 77.5844ZM760.656 69.7795C760.468 69.8023 760.294 69.8222 760.132 69.8393C758.612 70.0161 758.228 70.0617 757.88 69.9676C757.726 69.9277 757.578 69.8593 757.341 69.7652C756.848 69.5657 756.7 69.2778 756.7 68.5167C756.7 67.2738 757.028 67.0657 758.977 67.0657H760.542L760.921 65.9255C761.204 65.076 761.278 63.1718 761.209 58.4854C761.104 51.2135 761.064 51.0767 759.069 51.3503C758.402 51.4415 757.649 51.4387 757.398 51.3418C756.737 51.0881 756.352 49.8994 756.711 49.2295C756.979 48.7278 757.338 48.6793 760.702 48.6793C763.439 48.6793 764.411 48.7705 764.45 49.0356C764.479 49.2323 764.513 53.1861 764.522 57.8269C764.536 64.7852 764.53 66.678 765.297 67.0742C765.585 67.2225 765.978 67.1655 766.52 67.0828L766.577 67.0742C768.262 66.8205 769.017 67.2652 768.903 68.4368C768.769 69.808 767.789 70.1643 765.149 69.7966C763.758 69.6027 762.238 69.597 760.656 69.7795ZM711.945 67.4876C713.359 67.7356 715.315 67.3194 716.535 66.5127C718.046 65.5093 718.787 63.7932 718.787 61.2904V59.2579L717.575 59.791C716.908 60.0846 715.286 60.4723 713.969 60.649C710.908 61.068 709.471 61.6439 708.941 62.6672C707.818 64.8422 709.163 67.003 711.945 67.4876ZM609.478 45.7489C609.061 46.1052 608.352 46.3988 607.898 46.3988C605.76 46.3988 604.686 43.6081 606.288 42.2284C606.724 41.855 607.442 41.5528 607.898 41.5528C608.354 41.5528 609.073 41.855 609.509 42.2284C610.584 43.152 610.566 44.811 609.478 45.7489ZM763.943 45.5208C763.159 46.453 762.17 46.644 761.118 46.071C758.407 44.5859 760.366 40.6406 763.225 41.8236C764.756 42.4593 765.086 44.164 763.943 45.5208Z" fill="#D9D9D9"/>
<path d="M589.94 83.7759V87.7325L588.158 87.6926C584.757 87.6185 582.733 86.9771 581.311 85.5176C579.444 83.6077 579.315 82.8951 579.127 73.4795C578.985 66.2618 578.891 64.942 578.469 64.1666C577.973 63.2573 576.579 62.0771 576 62.0771C575.966 62.0771 575.935 62.08 575.909 62.08C575.849 62.0828 575.801 62.0857 575.766 62.0686C575.629 62.003 575.624 61.6609 575.507 60.0333C575.387 58.3314 575.43 58.1148 575.935 57.9552C576.824 57.673 577.936 56.6895 578.472 55.7089C578.893 54.9364 578.988 53.6308 579.13 46.5414C579.241 41.034 579.418 37.8955 579.663 37.1344C579.863 36.5101 580.558 35.4639 581.208 34.814C582.676 33.3488 584.635 32.7159 587.71 32.7159H589.94V36.627L588.221 36.8037C586.245 37.0118 584.982 37.5791 584.461 38.4913C584.198 38.9474 584.05 41.4388 583.933 47.254C583.742 56.6239 583.614 57.271 581.59 59.0498L580.33 60.1587L581.684 61.4728C582.505 62.271 583.181 63.2402 583.392 63.93C583.611 64.6455 583.808 68.0719 583.919 73.1033C584.084 80.6802 584.13 81.1819 584.697 81.9401C585.361 82.8295 586.539 83.3312 588.585 83.5992L589.94 83.7759ZM783.812 87.1681C782.435 87.5644 778.276 87.8551 778.008 87.5758C777.891 87.4532 777.794 86.5524 777.794 85.5775V83.8016L779.718 83.468C783.809 82.7611 783.863 82.6186 784.057 72.1968C784.202 64.3519 784.242 63.8702 784.844 62.7413C785.191 62.0885 785.898 61.2647 786.412 60.9112C786.925 60.5549 787.398 60.2242 787.463 60.1729C787.532 60.1216 787.047 59.6171 786.389 59.0526C784.239 57.214 784.239 57.2197 784.048 48.1092C783.866 39.2923 783.709 38.3744 782.235 37.408C781.828 37.1429 780.673 36.8607 779.647 36.778L777.794 36.6298V32.7159H780.166C783.458 32.7159 785.14 33.269 786.574 34.8254C787.21 35.5124 787.885 36.5728 788.079 37.1771C788.301 37.8784 788.49 41.2563 788.598 46.5414C788.752 53.8874 788.829 54.9164 789.305 55.7916C789.972 57.0173 790.274 57.3223 791.42 57.9153C792.304 58.3713 792.332 58.4455 792.332 60.2271V62.0657L791.195 62.6444C790.454 63.0235 789.835 63.6421 789.413 64.4317C788.797 65.5862 788.763 66.0138 788.615 74.0497C788.47 81.8632 788.415 82.553 787.845 83.7987C787.167 85.2839 785.485 86.6864 783.812 87.1681ZM698.12 55.4039C696.555 56.9689 693.701 55.6718 693.701 53.3913C693.701 50.6291 697.424 49.7283 698.647 52.1969C699.269 53.4512 699.112 54.4119 698.12 55.4039ZM698.168 69.6626C696.98 70.686 695.395 70.6033 694.44 69.4659C692.846 67.5731 693.904 65.2128 696.347 65.2128C698.006 65.2128 698.961 66.1677 698.961 67.8239C698.961 68.7333 698.793 69.1238 698.168 69.6626Z" fill="#D9D9D9"/>
<path fill-rule="evenodd" clip-rule="evenodd" d="M156.918 57.5631C156.918 84.0069 163.262 90.3508 189.706 90.3508C216.15 90.3508 222.494 84.0069 222.494 57.5631C222.494 31.1193 216.15 24.7754 189.706 24.7754C163.262 24.7754 156.918 31.1193 156.918 57.5631ZM170.14 64.3744L180.424 41.0023C182.16 37.0625 185.499 34.9256 189.706 34.9256C193.913 34.9256 197.252 37.0625 198.988 41.0023L209.272 64.3744C209.739 65.5096 210.14 66.9788 210.14 68.2475C210.14 74.057 206.066 78.1305 200.257 78.1305C198.278 78.1305 196.706 77.6255 195.115 77.1144C193.485 76.5906 191.835 76.0605 189.706 76.0605C187.601 76.0605 185.911 76.5954 184.248 77.1214C182.641 77.6301 181.059 78.1305 179.155 78.1305C173.345 78.1305 169.272 74.057 169.272 68.2475C169.272 66.9788 169.673 65.5096 170.14 64.3744ZM189.706 45.0756L179.556 68.0472C182.561 66.6448 186.033 65.9771 189.706 65.9771C193.245 65.9771 196.851 66.6448 199.722 68.0472L189.706 45.0756Z" fill="#5943FF"/>
<path fill-rule="evenodd" clip-rule="evenodd" d="M345.124 40.9949C342.848 40.9949 341.204 42.6074 341.204 44.8524C341.204 47.0971 342.848 48.7097 345.124 48.7097C347.401 48.7097 349.045 47.0971 349.045 44.8524C349.045 42.6074 347.401 40.9949 345.124 40.9949ZM273.413 74.1313C267.342 74.1313 262.947 69.6425 262.947 62.6221C262.947 55.4752 267.342 50.9864 273.413 50.9864C276.227 50.9864 278.314 51.9349 279.547 53.8004V42.0067H285.871V73.6254H279.547V71.3805C278.345 73.2143 276.258 74.1313 273.413 74.1313ZM269.397 62.6221C269.397 58.7013 271.516 56.1403 274.741 56.1403C277.997 56.1403 280.084 58.6696 280.084 62.5904C280.084 66.4478 277.997 68.9459 274.741 68.9459C271.516 68.9459 269.397 66.4479 269.397 62.6221ZM295.799 62.5588C295.799 58.6696 297.917 56.1718 301.079 56.1718C304.273 56.1718 306.391 58.6696 306.391 62.5588C306.391 66.4478 304.273 68.9459 301.079 68.9459C297.917 68.9459 295.799 66.4478 295.799 62.5588ZM365.487 67.5863C365.487 68.756 364.602 69.4518 362.355 69.4518C359.826 69.4518 358.246 68.1237 358.246 66.5111H351.922C352.08 70.8747 356.222 74.1313 362.229 74.1313C367.922 74.1313 371.558 71.6017 371.558 67.1119C371.558 63.7603 369.408 61.4206 365.14 60.5669L360.555 59.6499C359.164 59.3654 358.341 58.6696 358.341 57.7528C358.341 56.3932 359.732 55.6659 361.502 55.6659C364.032 55.6659 365.013 56.8358 365.013 58.227H371.02C370.861 54.1166 367.637 50.9864 361.629 50.9864C356.033 50.9864 352.238 53.8004 352.238 58.069C352.238 61.9265 354.736 63.6655 358.467 64.4559L363.02 65.4361C364.507 65.7523 365.487 66.3846 365.487 67.5863ZM348.318 73.6254H341.994V51.4922H348.318V73.6254ZM322.643 51.4922V53.8004C324.256 51.9349 326.406 50.9864 329.062 50.9864C334.026 50.9864 337.251 54.2115 337.251 59.2072V73.6254H330.927V60.5351C330.927 57.8476 329.41 56.235 326.785 56.235C324.161 56.235 322.643 57.8476 322.643 60.5351V73.6254H316.319V51.4922H322.643ZM301.079 50.9864C294.344 50.9864 289.349 55.8556 289.349 62.5588C289.349 69.2621 294.344 74.1313 301.079 74.1313C307.846 74.1313 312.841 69.2621 312.841 62.5588C312.841 55.8556 307.846 50.9864 301.079 50.9864ZM248.339 56.1403C245.114 56.1403 242.996 58.7013 242.996 62.6221C242.996 66.4479 245.114 68.9459 248.339 68.9459C251.596 68.9459 253.683 66.4478 253.683 62.5904C253.683 58.6696 251.596 56.1403 248.339 56.1403ZM236.545 62.6221C236.545 69.6425 240.94 74.1313 246.98 74.1313C249.857 74.1313 251.912 73.2143 253.145 71.3805V73.6254H259.469V51.4922H253.145V53.8004C251.88 51.9349 249.794 50.9864 246.98 50.9864C240.94 50.9864 236.545 55.4752 236.545 62.6221Z" fill="#5943FF"/>
</svg>
